<svg width="10" height="10" viewBox="0 0 10 10" fill="none" xmlns="http://www.w3.org/2000/svg">
<g clip-path="url(#clip0_61_7350)">
<path d="M4.80251 0.956857C4.82077 0.919965 4.84897 0.888912 4.88395 0.867201C4.91892 0.845489 4.95926 0.833984 5.00042 0.833984C5.04159 0.833984 5.08193 0.845489 5.1169 0.867201C5.15187 0.888912 5.18008 0.919965 5.19834 0.956857L6.16084 2.90644C6.22425 3.03476 6.31785 3.14578 6.4336 3.22996C6.54936 3.31415 6.68381 3.36899 6.82542 3.38977L8.97792 3.70477C9.01871 3.71068 9.05703 3.72789 9.08855 3.75444C9.12006 3.78099 9.14352 3.81584 9.15627 3.85503C9.16901 3.89422 9.17054 3.93619 9.16067 3.97621C9.1508 4.01622 9.12993 4.05267 9.10043 4.08144L7.54376 5.59727C7.4411 5.69732 7.36429 5.82081 7.31994 5.95712C7.27559 6.09343 7.26503 6.23848 7.28917 6.37977L7.65668 8.52144C7.66387 8.56221 7.65947 8.60418 7.64397 8.64256C7.62846 8.68094 7.60248 8.71419 7.56898 8.73852C7.53549 8.76285 7.49583 8.77727 7.45454 8.78015C7.41324 8.78302 7.37197 8.77423 7.33542 8.75477L5.41126 7.74311C5.28447 7.67653 5.14342 7.64175 5.00022 7.64175C4.85702 7.64175 4.71596 7.67653 4.58917 7.74311L2.66542 8.75477C2.6289 8.77411 2.58767 8.78281 2.54645 8.77988C2.50522 8.77695 2.46564 8.76251 2.43221 8.7382C2.39879 8.71389 2.37285 8.68069 2.35736 8.64237C2.34187 8.60405 2.33745 8.56215 2.34459 8.52144L2.71167 6.38019C2.73592 6.23883 2.72542 6.09369 2.68107 5.95729C2.63671 5.8209 2.55984 5.69734 2.45709 5.59727L0.900424 4.08186C0.870672 4.05312 0.849588 4.01661 0.839575 3.97647C0.829563 3.93634 0.831023 3.8942 0.843791 3.85485C0.856558 3.81551 0.880119 3.78054 0.91179 3.75393C0.94346 3.72733 0.981967 3.71015 1.02292 3.70436L3.17501 3.38977C3.31678 3.36915 3.45142 3.31438 3.56733 3.23018C3.68325 3.14599 3.77697 3.03489 3.84042 2.90644L4.80251 0.956857Z" stroke="#D1D5DC" stroke-width="1.33333" stroke-linecap="round" stroke-linejoin="round"/>
</g>
<defs>
<clipPath id="clip0_61_7350">
<rect width="10" height="10" fill="white"/>
</clipPath>
</defs>
</svg>
